<svg width="609" height="609" viewBox="0 0 609 609" xmlns="http://www.w3.org/2000/svg" fill="#e3e3e3">

 <g>
  <title>Layer 1</title>
  <path id="svg_1" d="m184.50002,609.11001q-26.65,0 -45.63,-18.98q-18.98,-18.98 -18.98,-45.63q0,-26.65 18.98,-45.63q18.98,-18.98 45.63,-18.98q26.65,0 45.63,18.98q18.98,18.98 18.98,45.63q0,26.65 -18.98,45.63q-18.98,18.98 -45.63,18.98zm240,0q-26.65,0 -45.63,-18.98q-18.98,-18.98 -18.98,-45.63q0,-26.65 18.98,-45.63q18.98,-18.98 45.63,-18.98q26.65,0 45.63,18.98q18.98,18.98 18.98,45.63q0,26.65 -18.98,45.63q-18.98,18.98 -45.63,18.98zm-240,-240q-26.65,0 -45.63,-18.98q-18.98,-18.98 -18.98,-45.63q0,-26.65 18.98,-45.63q18.98,-18.98 45.63,-18.98q26.65,0 45.63,18.98q18.98,18.98 18.98,45.63q0,26.65 -18.98,45.63q-18.98,18.98 -45.63,18.98zm240,0q-26.65,0 -45.63,-18.98q-18.98,-18.98 -18.98,-45.63q0,-26.65 18.98,-45.63q18.98,-18.98 45.63,-18.98q26.65,0 45.63,18.98q18.98,18.98 18.98,45.63q0,26.65 -18.98,45.63q-18.98,18.98 -45.63,18.98zm-240,-240q-26.65,0 -45.63,-18.98q-18.98,-18.98 -18.98,-45.63q0,-26.65 18.98,-45.63q18.98,-18.98 45.63,-18.98q26.65,0 45.63,18.98q18.98,18.98 18.98,45.63q0,26.65 -18.98,45.63q-18.98,18.98 -45.63,18.98zm240,0q-26.65,0 -45.63,-18.98q-18.98,-18.98 -18.98,-45.63q0,-26.65 18.98,-45.63q18.98,-18.98 45.63,-18.98q26.65,0 45.63,18.98q18.98,18.98 18.98,45.63q0,26.65 -18.98,45.63q-18.98,18.98 -45.63,18.98z"/>
 </g>
</svg>