<svg width="680" height="680" viewBox="0 0 680 680" xmlns="http://www.w3.org/2000/svg" fill="#e3e3e3">

 <g>
  <title>Layer 1</title>
  <path id="svg_1" d="m680,148.46l0,531.54l-680,0l0,-680l531.54,0l148.46,148.46zm-60,25.54l-114,-114l-446,0l0,560l560,0l0,-446zm-280.09,376.77q41.63,0 70.86,-29.14q29.23,-29.14 29.23,-70.77q0,-41.63 -29.14,-70.86q-29.14,-29.23 -70.77,-29.23q-41.63,0 -70.86,29.14q-29.23,29.14 -29.23,70.77q0,41.63 29.14,70.86q29.14,29.23 70.77,29.23zm-224.52,-295.39l328.45,0l0,-139.99l-328.45,0l0,139.99zm-55.39,-81.38l0,446l0,-560l0,114z"/>
 </g>
</svg>